<svg xmlns="http://www.w3.org/2000/svg" viewBox="0 0 100 125" x="0px" y="0px">
    <path
        d="M63.94,25.39c1.31,1.31,2.87,2.27,4.38,2.69,.57,.16,1.12,.23,1.64,.23,1.17,0,2.19-.38,2.93-1.13,1.08-1.07,1.4-2.74,.89-4.57-.42-1.51-1.37-3.07-2.69-4.38s-2.87-2.27-4.38-2.69c-1.83-.51-3.5-.18-4.57,.89-1.08,1.07-1.4,2.74-.89,4.57,.42,1.51,1.37,3.06,2.69,4.38Zm.68-6.48c.05-.05,.21-.1,.45-.1,.19,0,.42,.03,.71,.11,.92,.26,1.96,.91,2.84,1.79,.88,.88,1.54,1.92,1.79,2.84,.18,.67,.1,1.07,0,1.16-.1,.1-.49,.18-1.16,0-.92-.26-1.96-.91-2.84-1.79-.88-.88-1.54-1.92-1.79-2.84-.18-.67-.1-1.06,0-1.16Z" fill='#68DA79'/>
    <path
        d="M91.71,60.33c-.01-.12-.03-.24-.07-.36-.01-.03-.02-.07-.03-.1-.1-.27-.27-.51-.49-.7-.02-.02-.04-.04-.07-.06-.1-.08-.21-.15-.33-.21-.01,0-.02-.02-.04-.02h-.02s-.03-.02-.04-.03c-.13-.05-.26-.08-.39-.1-.02,0-.04,0-.07,0-.13-.01-.25-.01-.37,0-.03,0-.07,0-.1,.01-.14,.02-.28,.06-.42,.12h-.01c-.13,.06-.24,.14-.35,.22-.02,.01-.04,.02-.05,.03-.04,.03-3.61,2.88-10.13,4.34-.51-3.12-1.53-6.15-2.68-8.82,7.42-5.67,12.76-10.97,13.05-11.26,4.98-4.98,1.67-16.08-7.53-25.28-4.24-4.24-9.09-7.41-13.65-8.91-4.97-1.64-9.1-1.15-11.63,1.38-.37,.37-9.18,9.22-16.27,20.12-7.73,11.88-10.28,21.59-7.61,28.52l-8.98,8.98c-.05-.06-.11-.11-.16-.17-3.36-3.36-8.82-3.36-12.18,0-1.63,1.63-2.52,3.79-2.52,6.09s.9,4.46,2.52,6.09,3.59,2.42,5.7,2.51c-.21,2.4,.63,4.84,2.39,6.6,1.62,1.62,3.74,2.43,5.87,2.43s4.25-.81,5.87-2.43c2.92-2.92,3.2-7.48,.87-10.72l10.71-10.71c1.2,.27,2.46,.42,3.81,.42,1.45,0,2.98-.16,4.58-.48-3.03,9.53,2.5,18.6,2.58,18.72,.02,.03,.04,.04,.06,.07,.03,.04,.05,.09,.09,.13,.03,.03,.06,.05,.08,.08,.04,.04,.08,.08,.13,.12,.07,.06,.14,.11,.21,.15,.04,.03,.09,.06,.13,.08,.08,.04,.17,.07,.26,.1,.04,.01,.08,.03,.13,.04,.13,.03,.27,.05,.4,.05h0c.07,0,.14,0,.21-.01,.17-.02,.32-.05,.48-.07,6.01,2.97,11.36,4.46,16,4.46,3.62,0,6.82-.9,9.57-2.7,11.47-7.52,10.55-27.8,10.51-28.66,0-.02,0-.04-.01-.06Zm-12.66,6.66c2.57-.54,4.73-1.28,6.5-2.03-1.69,2.62-4.19,5.91-7.62,9.02,.85-2.26,1.18-4.62,1.13-6.99ZM58.76,13.06c.87-.87,2.18-1.3,3.82-1.3,1.25,0,2.68,.25,4.24,.77,4.05,1.34,8.41,4.2,12.27,8.06,8.21,8.21,10.56,17.3,7.53,20.33-1.53,1.53-4.46,1.72-8.06,.53-4.05-1.34-8.41-4.2-12.27-8.06-3.86-3.86-6.73-8.22-8.06-12.27-1.19-3.59-.99-6.53,.53-8.06ZM28.14,77.3c-.34,.34-.52,.81-.5,1.29s.23,.94,.59,1.26c.08,.07,.15,.13,.22,.2,1.87,1.87,1.87,4.91,0,6.78-1.87,1.87-4.92,1.87-6.79,0-1.41-1.41-1.8-3.59-.96-5.41,.29-.62,.18-1.36-.27-1.88-.34-.39-.82-.61-1.32-.61-.16,0-.33,.02-.49,.07-1.79,.52-3.73,.03-5.05-1.29-1.99-1.99-1.99-5.24,0-7.23,1.99-1.99,5.24-1.99,7.23,0,.36,.36,.66,.76,.89,1.19,.26,.49,.74,.83,1.29,.91,.55,.08,1.1-.1,1.5-.49l9.69-9.69c.43,.58,.89,1.15,1.42,1.68,1,1,2.1,1.81,3.3,2.46l-10.74,10.74Zm9.92-15.67c-10.55-10.55,7.05-33.27,15.99-43.45,.12,1.27,.4,2.61,.87,4.03,1.51,4.56,4.67,9.41,8.91,13.65,4.24,4.24,9.09,7.41,13.65,8.91,1.41,.47,2.76,.76,4.02,.88-1.93,1.7-4.31,3.7-6.98,5.76-1.91-3.69-3.74-6.19-3.94-6.46-.01-.02-.03-.03-.04-.04-.08-.1-.16-.18-.25-.26-.03-.02-.06-.05-.09-.07-.23-.17-.5-.28-.8-.32-.03,0-.05,0-.08,0-.13-.01-.27,0-.41,.01-.01,0-.02,0-.04,0h-.01s-.03,0-.05,0c-.14,.03-.26,.08-.38,.13-.01,0-.03,.02-.04,.02-.12,.06-.23,.13-.33,.22-.02,.02-.04,.03-.06,.05-.22,.2-.38,.45-.47,.73,0,.02-.02,.03-.02,.05-.02,.06-2.06,6.42-9.44,12.33-2.38,1.9-4.11,3.93-5.35,5.99-5.59,1.65-10.92,1.55-14.65-2.18Zm17.4,21.21c-1.9-4.15-5.09-14.38,4.79-22.29,3.64-2.91,6.09-5.91,7.73-8.39,.12,7.38-1.49,20.4-12.52,30.67Zm16.07-29.53c2.8,5.48,5.69,13.53,2.93,19.97-1.99,4.64-6.74,7.86-14.13,9.62,9.35-10.19,11.18-22.03,11.21-29.58Zm7.77,32.81c-4.23,2.77-9.97,2.83-17.1,.2,13.43-3.33,21.51-12.18,25.7-18.46-.7,6.11-2.74,14.42-8.6,18.26Z" fill='#68DA79'/>
</svg>