<?xml version="1.0" encoding="utf-8"?>
<!-- Generator: Adobe Illustrator 27.0.0, SVG Export Plug-In . SVG Version: 6.00 Build 0)  -->
<svg version="1.1" id="Layer_1" xmlns="http://www.w3.org/2000/svg" xmlns:xlink="http://www.w3.org/1999/xlink" x="0px" y="0px"
	 viewBox="0 0 100 125" style="enable-background:new 0 0 100 125;" xml:space="preserve">
<style type="text/css">
	.st0{fill:#30654E;}
</style>
<g>
	<path class="st0" d="M63.9,25.4c1.3,1.3,2.9,2.3,4.4,2.7c0.6,0.2,1.1,0.2,1.6,0.2c1.2,0,2.2-0.4,2.9-1.1c1.1-1.1,1.4-2.7,0.9-4.6
		c-0.4-1.5-1.4-3.1-2.7-4.4s-2.9-2.3-4.4-2.7c-1.8-0.5-3.5-0.2-4.6,0.9s-1.4,2.7-0.9,4.6C61.7,22.5,62.6,24.1,63.9,25.4L63.9,25.4z
		 M64.6,18.9c0.1,0,0.2-0.1,0.4-0.1c0.2,0,0.4,0,0.7,0.1c0.9,0.3,2,0.9,2.8,1.8s1.5,1.9,1.8,2.8c0.2,0.7,0.1,1.1,0,1.2
		s-0.5,0.2-1.2,0c-0.9-0.3-2-0.9-2.8-1.8c-0.9-0.9-1.5-1.9-1.8-2.8C64.4,19.4,64.5,19,64.6,18.9L64.6,18.9z"/>
	<path class="st0" d="M91.7,60.3c0-0.1,0-0.2-0.1-0.4v-0.1c-0.1-0.3-0.3-0.5-0.5-0.7c0,0,0,0-0.1-0.1c0,0-0.2,0-0.3-0.1l0,0l0,0l0,0
		c-0.1,0-0.3-0.1-0.4-0.1c0,0,0,0-0.1,0s-0.2,0-0.4,0h-0.1c-0.1,0-0.3,0.1-0.4,0.1l0,0C89.2,59,89.1,59,89,59.1c0,0,0,0-0.1,0
		c0,0-3.6,2.9-10.1,4.3c-0.5-3.1-1.5-6.2-2.7-8.8c7.4-5.7,12.8-11,13.1-11.3c5-5,1.7-16.1-7.5-25.3c-4.2-4.2-9.1-7.4-13.7-8.9
		c-5-1.6-9.1-1.1-11.6,1.4c-0.4,0.4-9.2,9.2-16.3,20.1c-7.7,11.9-10.3,21.6-7.6,28.5l-9,9c0-0.1-0.1-0.1-0.2-0.2
		c-3.4-3.4-8.8-3.4-12.2,0c-1.6,1.6-2.5,3.8-2.5,6.1s0.9,4.5,2.5,6.1s3.6,2.4,5.7,2.5c-0.2,2.4,0.6,4.8,2.4,6.6
		c1.6,1.6,3.7,2.4,5.9,2.4s4.2-0.8,5.9-2.4c2.9-2.9,3.2-7.5,0.9-10.7l10.7-10.7c1.2,0.3,2.5,0.4,3.8,0.4c1.5,0,3-0.2,4.6-0.5
		c-3,9.5,2.5,18.6,2.6,18.7c0,0,0,0,0.1,0.1c0,0,0,0.1,0.1,0.1l0.1,0.1l0.1,0.1c0.1,0.1,0.1,0.1,0.2,0.2l0.1,0.1
		c0.1,0,0.2,0.1,0.3,0.1h0.1c0.1,0,0.3,0.1,0.4,0.1l0,0c0.1,0,0.1,0,0.2,0c0.2,0,0.3-0.1,0.5-0.1c6,3,11.4,4.5,16,4.5
		c3.6,0,6.8-0.9,9.6-2.7C92.7,81.5,91.8,61.2,91.7,60.3C91.7,60.4,91.7,60.3,91.7,60.3L91.7,60.3z M79.1,67c2.6-0.5,4.7-1.3,6.5-2
		c-1.7,2.6-4.2,5.9-7.6,9C78.8,71.7,79.1,69.4,79.1,67L79.1,67z M58.8,13.1c0.9-0.9,2.2-1.3,3.8-1.3c1.2,0,2.7,0.2,4.2,0.8
		c4.1,1.3,8.4,4.2,12.3,8.1C87.3,28.9,89.7,38,86.6,41c-1.5,1.5-4.5,1.7-8.1,0.5c-4.1-1.3-8.4-4.2-12.3-8.1s-6.7-8.2-8.1-12.3
		C57,17.5,57.2,14.6,58.8,13.1z M28.1,77.3c-0.3,0.3-0.5,0.8-0.5,1.3s0.2,0.9,0.6,1.3c0.1,0.1,0.1,0.1,0.2,0.2
		c1.9,1.9,1.9,4.9,0,6.8s-4.9,1.9-6.8,0c-1.4-1.4-1.8-3.6-1-5.4c0.3-0.6,0.2-1.4-0.3-1.9C20,79.2,19.5,79,19,79
		c-0.2,0-0.3,0-0.5,0.1c-1.8,0.5-3.7,0-5.1-1.3c-2-2-2-5.2,0-7.2s5.2-2,7.2,0c0.4,0.4,0.7,0.8,0.9,1.2c0.3,0.5,0.7,0.8,1.3,0.9
		s1.1-0.1,1.5-0.5l9.7-9.7c0.4,0.6,0.9,1.2,1.4,1.7c1,1,2.1,1.8,3.3,2.5L28.1,77.3L28.1,77.3z M38.1,61.6c-10.5-10.5,7-33.3,16-43.5
		c0.1,1.3,0.4,2.6,0.9,4c1.5,4.6,4.7,9.4,8.9,13.6s9.1,7.4,13.7,8.9c1.4,0.5,2.8,0.8,4,0.9c-1.9,1.7-4.3,3.7-7,5.8
		c-1.9-3.7-3.7-6.2-3.9-6.5l0,0c-0.1-0.1-0.2-0.2-0.2-0.3c0,0-0.1,0-0.1-0.1c-0.2-0.2-0.5-0.3-0.8-0.3h-0.1c-0.1,0-0.3,0-0.4,0l0,0
		l0,0c0,0,0,0-0.1,0s-0.3,0.1-0.4,0.1l0,0c-0.1,0.1-0.2,0.1-0.3,0.2c0,0,0,0-0.1,0c-0.2,0.2-0.4,0.5-0.5,0.7l0,0
		c0,0.1-2.1,6.4-9.4,12.3c-2.4,1.9-4.1,3.9-5.3,6C47.1,65.4,41.8,65.3,38.1,61.6L38.1,61.6z M55.5,82.8c-1.9-4.2-5.1-14.4,4.8-22.3
		c3.6-2.9,6.1-5.9,7.7-8.4C68.1,59.5,66.5,72.6,55.5,82.8L55.5,82.8z M71.5,53.3c2.8,5.5,5.7,13.5,2.9,20c-2,4.6-6.7,7.9-14.1,9.6
		C69.7,72.7,71.5,60.9,71.5,53.3L71.5,53.3z M79.3,86.1c-4.2,2.8-10,2.8-17.1,0.2C75.6,83,83.7,74.1,87.9,67.9
		C87.2,74,85.2,82.3,79.3,86.1z"/>
</g>
</svg>
