<?xml version="1.0" encoding="utf-8"?>
<!-- Generator: Adobe Illustrator 27.0.0, SVG Export Plug-In . SVG Version: 6.00 Build 0)  -->
<svg version="1.1" id="Layer_1" xmlns="http://www.w3.org/2000/svg" xmlns:xlink="http://www.w3.org/1999/xlink" x="0px" y="0px"
	 viewBox="0 0 75 75" style="enable-background:new 0 0 75 75;" xml:space="preserve">
<style type="text/css">
	.st0{fill:none;stroke:#30654E;stroke-width:2;stroke-linecap:round;stroke-linejoin:round;}
	.st1{fill:#30654E;}
</style>
<g>
	<path class="st0" d="M1,1c11,8.8,19.9,19.8,26.2,32.4C33.5,46,37,59.8,37.4,73.8c3.3-24.8,5.5-34.6,14.6-51 M52,22.8
		c14.6,0,21.8-7.3,21.8-21.8C59.3,1,52,8.3,52,22.8z"/>
	<path class="st0" d="M57.1,6.8C49.6,2,40.5,0.1,31.6,1.5C22.7,2.9,14.7,7.6,9.1,14.6c-5.6,7-8.5,15.8-8,24.8
		c0.5,9,4.3,17.4,10.6,23.8c6.4,6.4,14.8,10.1,23.8,10.6s17.8-2.4,24.8-8c7-5.6,11.7-13.7,13.1-22.5c1.4-8.9-0.5-18-5.3-25.5"/>
	<path class="st1" d="M69.8,40.3c-6.2,3.7-5.8,11.2-10.2,14.6c-3.3,2.6-7.9,1.3-10.6,0.2c0,0-1.8,2.3-3.1,5.4c-0.4,1-2.4-0.1-2-1
		c4.3-11,18.8-16.5,18.8-16.5s-10.2-0.4-17.1,8.5c-0.2-2-0.5-7.6,4.8-11C57.6,35.8,71.3,39.4,69.8,40.3z"/>
</g>
</svg>
