<svg width="75" height="75" viewBox="0 0 75 75" fill="none" xmlns="http://www.w3.org/2000/svg">
<path d="M1 1C11.9911 9.76795 20.9414 20.8237 27.2292 33.3993C33.5169 45.9748 36.9914 59.7686 37.4111 73.8222C40.6881 48.9898 42.8728 39.2316 51.9755 22.8467M51.9755 22.8467C66.54 22.8467 73.8222 15.5644 73.8222 1C59.2577 1 51.9755 8.28222 51.9755 22.8467Z" stroke="#68DA79" stroke-width="2" stroke-linecap="round" stroke-linejoin="round"/>
<path d="M57.11 6.82558C49.5541 1.96495 40.4679 0.0694546 31.5988 1.50363C22.7297 2.93781 14.7039 7.60039 9.065 14.5947C3.42608 21.589 0.572129 30.4212 1.05201 39.3927C1.5319 48.3641 5.31173 56.8415 11.6646 63.1943C18.0175 69.5472 26.4948 73.327 35.4663 73.8069C44.4378 74.2868 53.2699 71.4329 60.2642 65.7939C67.2586 60.155 71.9211 52.1293 73.3553 43.2602C74.7895 34.3911 72.894 25.3048 68.0334 17.7489" stroke="#68DA79" stroke-width="2" stroke-linecap="round" stroke-linejoin="round"/>
<path d="M69.8239 40.2575C63.5837 43.9191 64.0306 51.4401 59.6584 54.8339C56.3678 57.3881 51.7249 56.0945 49.0402 54.9958C49.0402 54.9958 47.2209 57.2922 45.9158 60.3536C45.4789 61.3807 43.5607 60.249 43.8973 59.3794C48.1635 48.3701 62.6783 42.8777 62.6783 42.8777C62.6783 42.8777 52.4369 42.4436 45.5921 51.3871C45.4087 49.3443 45.105 43.8174 50.4055 40.428C57.5912 35.828 71.2809 39.4037 69.8239 40.2575Z" fill="#68DA79"/>
</svg>
